<?xml version="1.0" encoding="iso-8859-1"?>
<!-- Uploaded to: SVG Repo, www.svgrepo.com, Generator: SVG Repo Mixer Tools -->
<svg height="800px" width="800px" version="1.1" id="Capa_1" xmlns="http://www.w3.org/2000/svg" xmlns:xlink="http://www.w3.org/1999/xlink" 
	 viewBox="0 0 512 512" xml:space="preserve">
<g>
	<path style="fill:#5B699C;" d="M426.67,494.161c-38.499,0-69.818-31.322-69.818-69.82l-0.003-336.682
		c0-12.833-10.44-23.274-23.273-23.274c-12.834,0-23.273,10.44-23.273,23.273v290.135c0,64.161-52.201,116.362-116.364,116.362
		c-31.08,0.002-60.303-12.103-82.282-34.082c-21.977-21.979-34.082-51.2-34.082-82.281c0-12.853,10.42-23.273,23.273-23.273
		c12.851,0,23.273,10.42,23.273,23.273c0,18.649,7.263,36.181,20.451,49.369c13.186,13.186,30.72,20.449,49.368,20.449
		c38.498,0,69.818-31.319,69.818-69.817V87.657c0-38.498,31.317-69.818,69.818-69.818c38.498,0,69.818,31.322,69.818,69.82
		l0.003,336.679c0,12.836,10.439,23.277,23.273,23.277c12.833,0,23.273-10.44,23.273-23.273l-0.003-383.23
		c0-12.853,10.42-23.273,23.273-23.273c12.851,0,23.273,10.42,23.273,23.273l0.003,383.23
		C496.488,462.84,465.168,494.161,426.67,494.161z"/>
	<path style="fill:#5B699C;" d="M161.975,146.832c-12.757-1.592-24.384,7.453-25.977,20.205l-0.36,2.886l-69.576,0.003l-0.36-2.886
		c-1.595-12.753-13.225-21.807-25.98-20.205c-12.753,1.593-21.799,13.224-20.204,25.979l25.915,207.344
		c1.455,11.647,11.356,20.387,23.093,20.387h64.652c11.736,0,21.637-8.74,23.094-20.387l25.913-207.348
		C183.777,160.056,174.73,148.426,161.975,146.832z"/>
</g>
<path style="fill:#2D4175;" d="M496.485,41.112c0-12.853-10.422-23.273-23.273-23.273c-12.853,0-23.273,10.42-23.273,23.273
	l0.003,383.23c0,12.833-10.44,23.273-23.273,23.273c-12.834,0-23.273-10.442-23.273-23.277l-0.003-336.679
	c0-38.499-31.32-69.82-69.818-69.82c-8.158,0-15.988,1.42-23.273,4.003v65.815c0-12.833,10.439-23.273,23.273-23.273
	c12.833,0,23.273,10.44,23.273,23.274l0.003,336.682c0,38.499,31.319,69.82,69.818,69.82c38.498,0,69.818-31.32,69.818-69.818
	L496.485,41.112z"/>
<path style="fill:#9E8CEC;" d="M496.485,41.112c0-12.853-10.422-23.273-23.273-23.273c-12.853,0-23.273,10.42-23.273,23.273v77.576
	h46.545V41.112H496.485z"/>
<path style="fill:#2D4175;" d="M161.975,146.832c-12.757-1.592-24.384,7.453-25.977,20.205l-0.36,2.886l-34.79,0.002v230.619h32.327
	c11.736,0,21.637-8.74,23.094-20.387l25.913-207.348C183.777,160.056,174.73,148.426,161.975,146.832z"/>
<path style="fill:#9E8CEC;" d="M100.848,17.839C45.241,17.839,0,63.08,0,118.689c0.005,55.608,45.244,100.847,100.848,100.847l0,0
	c55.609-0.002,100.848-45.242,100.848-100.848S156.458,17.841,100.848,17.839z"/>
<path style="fill:#6A56CF;" d="M100.848,17.839v201.697l0,0c55.609-0.002,100.848-45.242,100.848-100.848
	S156.458,17.841,100.848,17.839z"/>
<path style="fill:#5B699C;" d="M488.727,157.476h-31.03c-12.853,0-23.273-10.42-23.273-23.273v-31.03
	c0-12.853,10.42-23.273,23.273-23.273h31.03C501.578,79.9,512,90.32,512,103.173v31.03C512,147.056,501.578,157.476,488.727,157.476
	z"/>
</svg>