<?xml version="1.0" encoding="iso-8859-1"?>
<!-- Uploaded to: SVG Repo, www.svgrepo.com, Generator: SVG Repo Mixer Tools -->
<svg height="800px" width="800px" version="1.1" id="Layer_1" xmlns="http://www.w3.org/2000/svg" xmlns:xlink="http://www.w3.org/1999/xlink" 
	 viewBox="0 0 512.001 512.001" xml:space="preserve">
<path style="fill:#3AA6A6;" d="M504.551,88.54v283.708c0,9.595-7.744,17.341-17.341,17.341c-9.596,0-17.341-7.746-17.341-17.341
	V95.823L504.551,88.54z"/>
<path style="fill:#43BFBF;" d="M180.857,156.747v286.02c0,9.595-7.744,17.341-17.341,17.341c-9.596,0-17.341-7.746-17.341-17.341
	V164.03L180.857,156.747z"/>
<path style="fill:#36D9D9;" d="M94.154,512.001c-47.306,0-86.704-31.03-86.704-69.363c0-38.38,39.471-69.363,86.704-69.363
	c47.306,0,86.704,31.03,86.704,69.363C180.857,481.018,141.386,512.001,94.154,512.001z"/>
<path style="fill:#43BFBF;" d="M417.847,442.638c-47.306,0-86.704-31.03-86.704-69.363c0-38.38,39.471-69.363,86.704-69.363
	c47.306,0,86.704,31.03,86.704,69.363C504.551,411.655,465.08,442.638,417.847,442.638z"/>
<path style="fill:#36D9D9;" d="M504.551,52.009V88.54l-179.188,37.803l-144.506,30.403l-34.681,7.283v-57.456
	c0-24.393,17.341-45.78,41.156-50.982l138.031-29.595l116.3-24.855c15.491-3.237,31.329,0.462,43.583,10.404
	C497.499,21.49,504.551,36.287,504.551,52.009z"/>
<path style="fill:#43BFBF;" d="M504.551,52.009V88.54l-179.188,37.803V25.998l116.3-24.855c15.491-3.237,31.329,0.462,43.583,10.404
	C497.499,21.49,504.551,36.287,504.551,52.009z"/>
</svg>