<svg width="800" height="800" viewBox="0 0 800 800" fill="none" xmlns="http://www.w3.org/2000/svg">
<path d="M200 0C172.5 0 150 22.5 150 50V750C150 777.525 172.5 800 200 800H700C727.5 800 750 777.525 750 750V200L550 0H200Z" fill="white"/>
<path d="M747.586 199H600C573.052 199 551 176.948 551 150V2.41421L747.586 199Z" fill="white" stroke="#CAD1D8" stroke-width="2"/>
<path d="M750 350L600 200H750V350Z" fill="#CAD1D8"/>
<path d="M650 650C650 663.75 638.75 675 625 675H75C61.25 675 50 663.75 50 650V400C50 386.25 61.25 375 75 375H625C638.75 375 650 386.25 650 400V650Z" fill="#50BEE8"/>
<path d="M183.1 512.25V586.225C183.1 595.025 175.925 600.025 168.7 600.025C162.3 600.025 156.725 595.025 156.725 586.225V473.675C156.725 463.3 165.525 459.875 168.7 459.875C174.5 459.875 177.9 463.3 181.3 467.075L225.3 526.45L270.85 464.875C277.475 456.675 293.65 459.875 293.65 473.675V586.225C293.65 595.025 288.025 600.025 281.65 600.025C274.475 600.025 268.85 595.025 268.85 586.225V512.25L235.675 554.25C228.5 563.05 219.5 563.05 212.9 554.25L183.1 512.25Z" fill="white"/>
<path d="M328.574 473.675C328.574 467.075 333.774 459.875 342.174 459.875H388.349C414.349 459.875 437.749 477.275 437.749 510.65C437.749 542.25 414.349 559.825 388.349 559.825H354.974V586.225C354.974 595.025 349.374 600.025 342.174 600.025C335.574 600.025 328.574 595.025 328.574 586.225V473.675ZM354.949 485.075V534.85H388.324C401.724 534.85 412.324 523.05 412.324 510.65C412.324 496.65 401.724 485.075 388.324 485.075H354.949Z" fill="white"/>
<path d="M503.224 486.675H469.049C452.274 486.675 453.274 461.7 469.049 461.7H530.224C542.399 461.7 547.999 475.7 539.024 484.7L505.849 515.675C530.249 513.875 549.424 532.05 549.424 554.45C549.424 579.025 532.024 600.025 495.449 600.025C479.449 600.025 463.674 593.425 454.474 579.025C444.874 564.85 465.449 551.25 476.249 565.225C481.449 572.025 489.849 575.425 498.824 575.425C511.024 575.425 523.024 570.225 523.024 554.425C523.024 533.65 497.624 536.85 483.849 538.25C467.049 541.45 462.074 523.25 471.874 515.675L503.224 486.675Z" fill="white"/>
<path d="M625 675H150V700H625C638.75 700 650 688.75 650 675V650C650 663.75 638.75 675 625 675Z" fill="#CAD1D8"/>
</svg>
