<svg width="800" height="800" viewBox="0 0 800 800" fill="none" xmlns="http://www.w3.org/2000/svg">
<path d="M200 0C172.5 0 150 22.5 150 50V750C150 777.5 172.5 800 200 800H700C727.5 800 750 777.5 750 750V200L550 0H200Z" fill="white"/>
<path d="M747.586 199H600C573.052 199 551 176.948 551 150V2.41421L747.586 199Z" fill="white" stroke="#CAD1D8" stroke-width="2"/>
<path d="M750 350L600 200H750V350Z" fill="#CAD1D8"/>
<path d="M650 650C650 663.75 638.75 675 625 675H75C61.25 675 50 663.75 50 650V400C50 386.25 61.25 375 75 375H625C638.75 375 650 386.25 650 400V650Z" fill="#576D7E"/>
<path d="M207.474 486.675H172.499C155.099 486.675 155.099 461.1 172.499 461.1H267.049C284.849 461.1 284.849 486.675 267.049 486.675H233.849V587.6C233.849 604.975 207.449 605.4 207.449 587.6V486.675H207.474Z" fill="white"/>
<path d="M350.65 509.65L385.45 466.075C395.85 452.5 416.025 469.875 404.65 482.875C392.65 497.075 380.075 512.475 368.05 528.225L408.85 579C419.825 594 397.85 608.4 387.05 593.6L350.275 546.425L314.1 594.6C303.9 609.175 281.3 592.8 292.725 579.2L332.875 528.225C320.3 512.45 308.1 497.075 295.9 482.875C283.3 467.875 306.7 452.5 315.875 466.5L350.65 509.65Z" fill="white"/>
<path d="M466.074 486.675H431.124C413.724 486.675 413.724 461.1 431.124 461.1H525.649C543.449 461.1 543.449 486.675 525.649 486.675H492.474V587.6C492.474 604.975 466.074 605.4 466.074 587.6V486.675Z" fill="white"/>
<path d="M625 675H150V700H625C638.75 700 650 688.75 650 675V650C650 663.75 638.75 675 625 675Z" fill="#CAD1D8"/>
</svg>
